STARTFONT 2.1
FONT -Adobe-ITC Bookman-Light-I-Normal--14-100-100-100-P-82-ISO8859-1
SIZE 10 100 100
FONTBOUNDINGBOX 20 15 -3 -4

STARTPROPERTIES 26
_DEC_DEVICE_FONTNAMES "PS=Bookman-LightItalic"
FONTNAME_REGISTRY ""
FAMILY_NAME "ITC Bookman"
FOUNDRY "Adobe"
WEIGHT_NAME "Light"
SLANT "I"
SETWIDTH_NAME "Normal"
ADD_STYLE_NAME ""
PIXEL_SIZE 14
POINT_SIZE 100
RESOLUTION_X 100
RESOLUTION_Y 100
SPACING "P"
AVERAGE_WIDTH 82
CHARSET_REGISTRY "ISO8859"
CHARSET_ENCODING "1"
CHARSET_COLLECTIONS "ASCII ISO8859-1 ADOBE-STANDARD"
FULL_NAME "ITC Bookman Light Italic"
COPYRIGHT "Copyright (c) 1991 Adobe Systems, Inc."
CAP_HEIGHT 10
X_HEIGHT 7
WEIGHT 10
QUAD_WIDTH 10
DEFAULT_CHAR 0
FONT_DESCENT 4
FONT_ASCENT 11
ENDPROPERTIES

CHARS 190

STARTCHAR space
ENCODING 32
SWIDTH 312 0
DWIDTH 5 0
BBX 1 1 0 0
BITMAP
00
ENDCHAR

STARTCHAR exclam
ENCODING 33
SWIDTH 329 0
DWIDTH 4 0
BBX 3 10 0 0
BITMAP
20
20
20
40
40
40
40
00
80
80
ENDCHAR

STARTCHAR quotedbl
ENCODING 34
SWIDTH 364 0
DWIDTH 5 0
BBX 4 4 1 6
BITMAP
50
50
A0
A0
ENDCHAR

STARTCHAR numbersign
ENCODING 35
SWIDTH 613 0
DWIDTH 9 0
BBX 8 10 0 0
BITMAP
12
12
12
7F
24
24
FE
48
48
48
ENDCHAR

STARTCHAR dollar
ENCODING 36
SWIDTH 613 0
DWIDTH 9 0
BBX 8 12 0 -1
BITMAP
04
04
3E
49
48
3C
0A
92
92
7C
20
20
ENDCHAR

STARTCHAR percent
ENCODING 37
SWIDTH 795 0
DWIDTH 12 0
BBX 11 10 0 0
BITMAP
3880
4900
8900
8A00
94E0
E520
0A20
0A20
1240
2380
ENDCHAR

STARTCHAR ampersand
ENCODING 38
SWIDTH 829 0
DWIDTH 11 0
BBX 10 10 0 0
BITMAP
1800
2400
2400
2800
3180
5080
8900
8640
C640
7980
ENDCHAR

STARTCHAR quoteright
ENCODING 39
SWIDTH 272 0
DWIDTH 4 0
BBX 2 3 2 7
BITMAP
C0
40
80
ENDCHAR

STARTCHAR parenleft
ENCODING 40
SWIDTH 279 0
DWIDTH 5 0
BBX 5 13 1 -3
BITMAP
08
10
20
40
40
80
80
80
80
80
40
40
20
ENDCHAR

STARTCHAR parenright
ENCODING 41
SWIDTH 279 0
DWIDTH 5 0
BBX 5 13 -1 -3
BITMAP
20
10
10
08
08
08
08
08
10
10
20
40
80
ENDCHAR

STARTCHAR asterisk
ENCODING 42
SWIDTH 447 0
DWIDTH 7 0
BBX 6 5 0 5
BITMAP
10
6C
30
D8
20
ENDCHAR

STARTCHAR plus
ENCODING 43
SWIDTH 613 0
DWIDTH 9 0
BBX 7 7 1 0
BITMAP
10
10
10
FE
10
10
10
ENDCHAR

STARTCHAR comma
ENCODING 44
SWIDTH 306 0
DWIDTH 5 0
BBX 2 3 0 -1
BITMAP
40
40
80
ENDCHAR

STARTCHAR minus
ENCODING 45
SWIDTH 606 0
DWIDTH 9 0
BBX 7 1 0 3
BITMAP
FE
ENDCHAR

STARTCHAR period
ENCODING 46
SWIDTH 306 0
DWIDTH 5 0
BBX 1 2 1 0
BITMAP
80
80
ENDCHAR

STARTCHAR slash
ENCODING 47
SWIDTH 393 0
DWIDTH 6 0
BBX 7 13 -1 -3
BITMAP
02
02
04
04
08
08
10
10
20
20
40
40
00
ENDCHAR

STARTCHAR zero
ENCODING 48
SWIDTH 613 0
DWIDTH 9 0
BBX 8 10 0 0
BITMAP
1C
22
41
41
81
81
82
82
44
38
ENDCHAR

STARTCHAR one
ENCODING 49
SWIDTH 613 0
DWIDTH 9 0
BBX 5 10 1 0
BITMAP
18
28
08
10
10
10
20
20
20
F0
ENDCHAR

STARTCHAR two
ENCODING 50
SWIDTH 616 0
DWIDTH 9 0
BBX 8 10 0 0
BITMAP
1E
23
41
41
02
04
08
31
42
FE
ENDCHAR

STARTCHAR three
ENCODING 51
SWIDTH 613 0
DWIDTH 9 0
BBX 8 10 0 0
BITMAP
1E
21
21
02
0C
02
41
81
42
3C
ENDCHAR

STARTCHAR four
ENCODING 52
SWIDTH 613 0
DWIDTH 9 0
BBX 8 10 0 0
BITMAP
06
0A
12
22
44
84
FF
08
08
1C
ENDCHAR

STARTCHAR five
ENCODING 53
SWIDTH 613 0
DWIDTH 9 0
BBX 8 10 0 0
BITMAP
3F
20
40
7C
42
01
41
81
42
3C
ENDCHAR

STARTCHAR six
ENCODING 54
SWIDTH 613 0
DWIDTH 9 0
BBX 8 10 0 0
BITMAP
1E
61
41
80
BC
C2
81
81
C2
7C
ENDCHAR

STARTCHAR seven
ENCODING 55
SWIDTH 613 0
DWIDTH 9 0
BBX 8 10 0 0
BITMAP
7F
82
84
08
08
10
10
20
20
20
ENDCHAR

STARTCHAR eight
ENCODING 56
SWIDTH 613 0
DWIDTH 9 0
BBX 8 10 0 0
BITMAP
1E
21
41
42
3C
42
81
81
C2
7C
ENDCHAR

STARTCHAR nine
ENCODING 57
SWIDTH 613 0
DWIDTH 9 0
BBX 8 10 0 0
BITMAP
3C
42
81
81
43
3D
02
82
84
78
ENDCHAR

STARTCHAR colon
ENCODING 58
SWIDTH 306 0
DWIDTH 5 0
BBX 2 7 1 0
BITMAP
40
40
00
00
00
80
80
ENDCHAR

STARTCHAR semicolon
ENCODING 59
SWIDTH 306 0
DWIDTH 5 0
BBX 3 8 0 -1
BITMAP
20
20
00
00
00
40
40
80
ENDCHAR

STARTCHAR less
ENCODING 60
SWIDTH 681 0
DWIDTH 9 0
BBX 8 7 0 0
BITMAP
03
0C
30
C0
30
0C
03
ENDCHAR

STARTCHAR equal
ENCODING 61
SWIDTH 612 0
DWIDTH 9 0
BBX 6 3 1 2
BITMAP
FC
00
FC
ENDCHAR

STARTCHAR greater
ENCODING 62
SWIDTH 681 0
DWIDTH 9 0
BBX 8 7 0 0
BITMAP
C0
30
0C
03
0C
30
C0
ENDCHAR

STARTCHAR question
ENCODING 63
SWIDTH 537 0
DWIDTH 8 0
BBX 6 10 1 0
BITMAP
78
84
84
08
30
40
40
00
80
80
ENDCHAR

STARTCHAR at
ENCODING 64
SWIDTH 780 0
DWIDTH 11 0
BBX 10 10 0 0
BITMAP
1F00
6080
4C40
9340
A240
A480
A480
9B00
4000
3E00
ENDCHAR

STARTCHAR A
ENCODING 65
SWIDTH 687 0
DWIDTH 10 0
BBX 10 10 -1 0
BITMAP
0200
0200
0600
0900
0900
1100
3F00
2080
4080
E1C0
ENDCHAR

STARTCHAR B
ENCODING 66
SWIDTH 712 0
DWIDTH 9 0
BBX 9 10 -1 0
BITMAP
3F00
1080
1080
2080
3F00
2180
6080
4080
4100
FE00
ENDCHAR

STARTCHAR C
ENCODING 67
SWIDTH 714 0
DWIDTH 10 0
BBX 9 10 0 0
BITMAP
0E80
3180
6080
4000
C000
8000
8080
C180
6300
3C00
ENDCHAR

STARTCHAR D
ENCODING 68
SWIDTH 744 0
DWIDTH 10 0
BBX 10 10 -1 0
BITMAP
3F00
1180
10C0
3040
2040
2040
2080
4180
4300
FC00
ENDCHAR

STARTCHAR E
ENCODING 69
SWIDTH 685 0
DWIDTH 9 0
BBX 10 10 -1 0
BITMAP
3FC0
1040
1000
2200
3E00
2200
2000
4080
4100
FF00
ENDCHAR

STARTCHAR F
ENCODING 70
SWIDTH 617 0
DWIDTH 8 0
BBX 10 10 -1 0
BITMAP
3FC0
1040
1000
2200
3E00
2200
2000
4000
4000
E000
ENDCHAR

STARTCHAR G
ENCODING 71
SWIDTH 759 0
DWIDTH 11 0
BBX 10 10 0 0
BITMAP
0E80
3180
6080
4000
C000
83C0
8080
C180
6300
3D00
ENDCHAR

STARTCHAR H
ENCODING 72
SWIDTH 788 0
DWIDTH 11 0
BBX 12 10 -1 0
BITMAP
3C70
1020
1020
2040
3FC0
2040
2040
4080
4080
E1C0
ENDCHAR

STARTCHAR I
ENCODING 73
SWIDTH 312 0
DWIDTH 5 0
BBX 5 10 0 0
BITMAP
38
10
10
20
20
20
20
40
40
E0
ENDCHAR

STARTCHAR J
ENCODING 74
SWIDTH 560 0
DWIDTH 9 0
BBX 9 10 0 0
BITMAP
0380
0100
0100
0200
0200
0200
C200
8400
CC00
7800
ENDCHAR

STARTCHAR K
ENCODING 75
SWIDTH 714 0
DWIDTH 10 0
BBX 11 10 -1 0
BITMAP
39E0
1080
1100
2600
2800
3800
6400
4200
4100
E380
ENDCHAR

STARTCHAR L
ENCODING 76
SWIDTH 579 0
DWIDTH 9 0
BBX 8 10 0 0
BITMAP
38
10
10
30
20
20
60
41
42
FE
ENDCHAR

STARTCHAR M
ENCODING 77
SWIDTH 855 0
DWIDTH 13 0
BBX 14 10 -1 0
BITMAP
3C3C
1428
1448
2450
2490
2490
2510
4520
4620
E460
ENDCHAR

STARTCHAR N
ENCODING 78
SWIDTH 709 0
DWIDTH 11 0
BBX 11 10 0 0
BITMAP
30E0
1040
1840
2880
2480
2480
2280
4300
4100
E100
ENDCHAR

STARTCHAR O
ENCODING 79
SWIDTH 759 0
DWIDTH 11 0
BBX 10 10 0 0
BITMAP
0F00
3180
60C0
4040
8040
8040
8080
C180
6300
3C00
ENDCHAR

STARTCHAR P
ENCODING 80
SWIDTH 588 0
DWIDTH 9 0
BBX 10 10 -1 0
BITMAP
3F80
10C0
1040
20C0
2180
3E00
2000
4000
4000
E000
ENDCHAR

STARTCHAR Q
ENCODING 81
SWIDTH 778 0
DWIDTH 11 0
BBX 10 13 0 -3
BITMAP
0F00
3180
60C0
4040
8040
8040
8080
CE80
7300
1C80
C080
6100
3E00
ENDCHAR

STARTCHAR R
ENCODING 82
SWIDTH 702 0
DWIDTH 10 0
BBX 10 10 -1 0
BITMAP
3F80
10C0
1040
2040
2180
3E00
2300
4100
4180
E0C0
ENDCHAR

STARTCHAR S
ENCODING 83
SWIDTH 644 0
DWIDTH 9 0
BBX 8 10 0 0
BITMAP
3D
63
41
60
38
04
02
82
C6
BC
ENDCHAR

STARTCHAR T
ENCODING 84
SWIDTH 596 0
DWIDTH 9 0
BBX 8 10 1 0
BITMAP
7F
C9
08
10
10
10
10
20
20
70
ENDCHAR

STARTCHAR U
ENCODING 85
SWIDTH 729 0
DWIDTH 10 0
BBX 10 10 0 0
BITMAP
71C0
2080
2080
4100
4100
4100
8200
8200
C600
7C00
ENDCHAR

STARTCHAR V
ENCODING 86
SWIDTH 664 0
DWIDTH 9 0
BBX 10 10 0 0
BITMAP
F1C0
4080
4100
2200
2200
2400
3400
1800
1000
1000
ENDCHAR

STARTCHAR W
ENCODING 87
SWIDTH 943 0
DWIDTH 14 0
BBX 15 10 0 0
BITMAP
F39E
4104
2108
2110
2310
22A0
14A0
14C0
18C0
1880
ENDCHAR

STARTCHAR X
ENCODING 88
SWIDTH 691 0
DWIDTH 9 0
BBX 11 10 -1 0
BITMAP
78E0
1080
0900
0A00
0400
0C00
1200
2200
4100
E380
ENDCHAR

STARTCHAR Y
ENCODING 89
SWIDTH 658 0
DWIDTH 9 0
BBX 10 10 0 0
BITMAP
F1C0
4080
2100
2200
1400
1800
0800
1000
1000
3800
ENDCHAR

STARTCHAR Z
ENCODING 90
SWIDTH 586 0
DWIDTH 9 0
BBX 9 10 0 0
BITMAP
3F80
6100
4200
0400
0800
1000
2000
4100
8300
FE00
ENDCHAR

STARTCHAR bracketleft
ENCODING 91
SWIDTH 269 0
DWIDTH 5 0
BBX 4 13 0 -3
BITMAP
30
20
20
20
40
40
40
40
40
80
80
80
C0
ENDCHAR

STARTCHAR backslash
ENCODING 92
SWIDTH 592 0
DWIDTH 8 0
BBX 5 10 1 0
BITMAP
80
80
40
40
20
20
10
10
08
08
ENDCHAR

STARTCHAR bracketright
ENCODING 93
SWIDTH 269 0
DWIDTH 4 0
BBX 4 13 -1 -3
BITMAP
30
10
10
10
20
20
20
20
20
40
40
40
C0
ENDCHAR

STARTCHAR asciicircum
ENCODING 94
SWIDTH 681 0
DWIDTH 9 0
BBX 5 5 2 5
BITMAP
20
50
50
88
88
ENDCHAR

STARTCHAR underscore
ENCODING 95
SWIDTH 718 0
DWIDTH 7 0
BBX 7 1 -1 -3
BITMAP
FE
ENDCHAR

STARTCHAR quoteleft
ENCODING 96
SWIDTH 272 0
DWIDTH 4 0
BBX 2 3 1 7
BITMAP
40
80
C0
ENDCHAR

STARTCHAR a
ENCODING 97
SWIDTH 615 0
DWIDTH 9 0
BBX 8 7 0 0
BITMAP
39
46
82
82
84
8C
73
ENDCHAR

STARTCHAR b
ENCODING 98
SWIDTH 592 0
DWIDTH 8 0
BBX 8 10 -1 0
BITMAP
18
08
10
1C
32
21
21
41
62
DC
ENDCHAR

STARTCHAR c
ENCODING 99
SWIDTH 484 0
DWIDTH 7 0
BBX 6 7 0 0
BITMAP
38
44
84
80
80
88
70
ENDCHAR

STARTCHAR d
ENCODING 100
SWIDTH 622 0
DWIDTH 9 0
BBX 8 10 0 0
BITMAP
03
01
01
3A
46
82
82
84
8D
72
ENDCHAR

STARTCHAR e
ENCODING 101
SWIDTH 527 0
DWIDTH 8 0
BBX 7 7 0 0
BITMAP
3C
42
82
FC
80
84
78
ENDCHAR

STARTCHAR f
ENCODING 102
SWIDTH 342 0
DWIDTH 5 0
BBX 9 13 -3 -3
BITMAP
0300
0480
0400
1E00
0400
0400
0800
0800
0800
0800
0800
D000
6000
ENDCHAR

STARTCHAR g
ENCODING 103
SWIDTH 562 0
DWIDTH 8 0
BBX 7 10 0 -3
BITMAP
3A
46
82
82
84
8C
74
04
88
70
ENDCHAR

STARTCHAR h
ENCODING 104
SWIDTH 626 0
DWIDTH 9 0
BBX 9 10 -1 0
BITMAP
7000
1000
2000
2E00
3100
2100
6100
4200
4280
C100
ENDCHAR

STARTCHAR i
ENCODING 105
SWIDTH 285 0
DWIDTH 4 0
BBX 3 10 0 0
BITMAP
20
20
00
C0
40
40
80
80
A0
40
ENDCHAR

STARTCHAR j
ENCODING 106
SWIDTH 265 0
DWIDTH 4 0
BBX 7 14 -3 -4
BITMAP
02
02
00
0C
04
04
04
08
08
08
08
08
90
60
ENDCHAR

STARTCHAR k
ENCODING 107
SWIDTH 594 0
DWIDTH 8 0
BBX 7 10 0 0
BITMAP
60
20
20
46
48
50
70
C8
8C
86
ENDCHAR

STARTCHAR l
ENCODING 108
SWIDTH 287 0
DWIDTH 5 0
BBX 4 10 0 0
BITMAP
60
20
20
40
40
40
40
80
90
60
ENDCHAR

STARTCHAR m
ENCODING 109
SWIDTH 887 0
DWIDTH 12 0
BBX 11 7 0 0
BITMAP
D980
6640
4440
4440
8880
88A0
8840
ENDCHAR

STARTCHAR n
ENCODING 110
SWIDTH 607 0
DWIDTH 9 0
BBX 8 7 0 0
BITMAP
CC
72
42
42
84
85
82
ENDCHAR

STARTCHAR o
ENCODING 111
SWIDTH 547 0
DWIDTH 7 0
BBX 6 7 0 0
BITMAP
38
44
84
84
84
88
70
ENDCHAR

STARTCHAR p
ENCODING 112
SWIDTH 593 0
DWIDTH 8 0
BBX 9 10 -2 -3
BITMAP
3700
1880
1080
1080
2080
3100
2E00
2000
4000
F000
ENDCHAR

STARTCHAR q
ENCODING 113
SWIDTH 562 0
DWIDTH 8 0
BBX 7 10 0 -3
BITMAP
3A
46
82
84
84
9C
68
08
10
38
ENDCHAR

STARTCHAR r
ENCODING 114
SWIDTH 405 0
DWIDTH 6 0
BBX 6 7 0 0
BITMAP
D8
64
40
40
80
80
80
ENDCHAR

STARTCHAR s
ENCODING 115
SWIDTH 528 0
DWIDTH 8 0
BBX 7 7 0 0
BITMAP
3C
42
60
18
84
84
78
ENDCHAR

STARTCHAR t
ENCODING 116
SWIDTH 346 0
DWIDTH 5 0
BBX 5 10 -1 0
BITMAP
10
10
20
F8
20
20
40
40
48
30
ENDCHAR

STARTCHAR u
ENCODING 117
SWIDTH 619 0
DWIDTH 9 0
BBX 8 7 0 0
BITMAP
E2
42
42
84
84
8D
76
ENDCHAR

STARTCHAR v
ENCODING 118
SWIDTH 522 0
DWIDTH 8 0
BBX 7 7 0 0
BITMAP
E4
42
42
84
84
98
60
ENDCHAR

STARTCHAR w
ENCODING 119
SWIDTH 861 0
DWIDTH 11 0
BBX 10 7 0 0
BITMAP
E640
4440
4440
8840
8880
8880
7700
ENDCHAR

STARTCHAR x
ENCODING 120
SWIDTH 542 0
DWIDTH 8 0
BBX 8 7 -1 0
BITMAP
63
24
14
18
28
25
C6
ENDCHAR

STARTCHAR y
ENCODING 121
SWIDTH 597 0
DWIDTH 8 0
BBX 9 11 -1 -4
BITMAP
7180
2100
2100
4200
4200
4600
3A00
0400
8400
8800
7000
ENDCHAR

STARTCHAR z
ENCODING 122
SWIDTH 513 0
DWIDTH 7 0
BBX 6 7 0 0
BITMAP
3C
44
08
10
20
44
F8
ENDCHAR

STARTCHAR braceleft
ENCODING 123
SWIDTH 374 0
DWIDTH 6 0
BBX 6 13 0 -3
BITMAP
0C
10
10
10
20
20
C0
20
20
40
40
40
20
ENDCHAR

STARTCHAR bar
ENCODING 124
SWIDTH 175 0
DWIDTH 4 0
BBX 1 10 1 0
BITMAP
80
80
80
80
80
80
80
80
80
80
ENDCHAR

STARTCHAR braceright
ENCODING 125
SWIDTH 374 0
DWIDTH 6 0
BBX 6 13 -1 -3
BITMAP
10
08
08
08
10
10
0C
10
10
20
20
20
C0
ENDCHAR

STARTCHAR asciitilde
ENCODING 126
SWIDTH 613 0
DWIDTH 9 0
BBX 6 2 1 3
BITMAP
64
98
ENDCHAR

STARTCHAR exclamdown
ENCODING 161
SWIDTH 329 0
DWIDTH 4 0
BBX 3 10 0 -3
BITMAP
20
20
00
40
40
40
80
80
80
80
ENDCHAR

STARTCHAR cent
ENCODING 162
SWIDTH 613 0
DWIDTH 9 0
BBX 7 12 1 -1
BITMAP
08
08
1C
2A
4A
90
90
92
A4
78
20
20
ENDCHAR

STARTCHAR sterling
ENCODING 163
SWIDTH 613 0
DWIDTH 9 0
BBX 9 10 -1 0
BITMAP
0700
0C80
0980
0800
3F00
0800
1800
7300
9900
7700
ENDCHAR

STARTCHAR currency
ENCODING 164
SWIDTH 613 0
DWIDTH 9 0
BBX 7 8 0 0
BITMAP
C6
7C
C6
82
82
C6
7C
C6
ENDCHAR

STARTCHAR yen
ENCODING 165
SWIDTH 615 0
DWIDTH 9 0
BBX 8 10 1 0
BITMAP
E7
42
44
28
EC
30
FC
20
20
F0
ENDCHAR

STARTCHAR brokenbar
ENCODING 166
SWIDTH 175 0
DWIDTH 4 0
BBX 1 10 1 0
BITMAP
80
80
80
00
00
00
80
80
80
80
ENDCHAR

STARTCHAR section
ENCODING 167
SWIDTH 613 0
DWIDTH 9 0
BBX 9 13 -1 -3
BITMAP
0F00
1180
2180
3000
3C00
4600
6300
3100
1E00
0600
C200
C400
7800
ENDCHAR

STARTCHAR dieresis
ENCODING 168
SWIDTH 418 0
DWIDTH 6 0
BBX 4 2 2 8
BITMAP
90
90
ENDCHAR

STARTCHAR copyright
ENCODING 169
SWIDTH 837 0
DWIDTH 12 0
BBX 10 10 0 0
BITMAP
3F00
4080
8C40
9240
9040
9040
9240
8C40
4080
3F00
ENDCHAR

STARTCHAR ordfeminine
ENCODING 170
SWIDTH 409 0
DWIDTH 6 0
BBX 5 6 0 4
BITMAP
38
48
50
78
00
F0
ENDCHAR

STARTCHAR guillemotleft
ENCODING 171
SWIDTH 295 0
DWIDTH 6 0
BBX 5 4 0 2
BITMAP
28
50
A0
50
ENDCHAR

STARTCHAR logicalnot
ENCODING 172
SWIDTH 787 0
DWIDTH 9 0
BBX 8 4 0 1
BITMAP
FF
01
01
01
ENDCHAR

STARTCHAR hyphen
ENCODING 173
SWIDTH 312 0
DWIDTH 5 0
BBX 4 1 0 3
BITMAP
F0
ENDCHAR

STARTCHAR registered
ENCODING 174
SWIDTH 840 0
DWIDTH 12 0
BBX 10 10 0 0
BITMAP
3F00
4080
9C40
9240
9240
9C40
9240
9240
4080
3F00
ENDCHAR

STARTCHAR macron
ENCODING 175
SWIDTH 438 0
DWIDTH 6 0
BBX 4 1 1 9
BITMAP
F0
ENDCHAR

STARTCHAR degree
ENCODING 176
SWIDTH 400 0
DWIDTH 6 0
BBX 4 4 1 6
BITMAP
60
90
90
60
ENDCHAR

STARTCHAR plusminus
ENCODING 177
SWIDTH 613 0
DWIDTH 9 0
BBX 7 7 1 0
BITMAP
10
10
FE
10
10
00
FE
ENDCHAR

STARTCHAR twosuperior
ENCODING 178
SWIDTH 616 0
DWIDTH 5 0
BBX 5 6 0 4
BITMAP
30
48
10
20
40
F0
ENDCHAR

STARTCHAR threesuperior
ENCODING 179
SWIDTH 613 0
DWIDTH 5 0
BBX 6 6 -1 4
BITMAP
38
44
18
08
88
70
ENDCHAR

STARTCHAR acute
ENCODING 180
SWIDTH 320 0
DWIDTH 6 0
BBX 5 2 1 8
BITMAP
38
C0
ENDCHAR

STARTCHAR mu
ENCODING 181
SWIDTH 619 0
DWIDTH 9 0
BBX 9 10 -1 -3
BITMAP
7100
2100
2100
4200
4200
4680
7B00
8000
8000
8000
ENDCHAR

STARTCHAR paragraph
ENCODING 182
SWIDTH 613 0
DWIDTH 9 0
BBX 8 10 1 0
BITMAP
7F
FA
FA
F4
74
14
14
28
28
7C
ENDCHAR

STARTCHAR periodcentered
ENCODING 183
SWIDTH 306 0
DWIDTH 5 0
BBX 1 2 1 3
BITMAP
80
80
ENDCHAR

STARTCHAR cedilla
ENCODING 184
SWIDTH 324 0
DWIDTH 4 0
BBX 3 3 -1 -3
BITMAP
20
A0
C0
ENDCHAR

STARTCHAR onesuperior
ENCODING 185
SWIDTH 613 0
DWIDTH 5 0
BBX 3 6 0 4
BITMAP
20
60
20
40
40
E0
ENDCHAR

STARTCHAR ordmasculine
ENCODING 186
SWIDTH 409 0
DWIDTH 6 0
BBX 5 6 0 4
BITMAP
38
48
48
70
00
F0
ENDCHAR

STARTCHAR guillemotright
ENCODING 187
SWIDTH 295 0
DWIDTH 6 0
BBX 5 4 0 2
BITMAP
50
28
50
A0
ENDCHAR

STARTCHAR onequarter
ENCODING 188
SWIDTH 20 0
DWIDTH 13 0
BBX 11 10 1 0
BITMAP
2080
6100
2100
4200
44C0
E540
0A40
1480
17E0
2080
ENDCHAR

STARTCHAR onehalf
ENCODING 189
SWIDTH 20 0
DWIDTH 13 0
BBX 11 10 1 0
BITMAP
2080
6100
2100
4200
44C0
E520
0840
1080
1100
23C0
ENDCHAR

STARTCHAR threequarters
ENCODING 190
SWIDTH 20 0
DWIDTH 13 0
BBX 12 10 0 0
BITMAP
3840
4480
1880
0900
8A60
72A0
0520
0A40
0BF0
1040
ENDCHAR

STARTCHAR questiondown
ENCODING 191
SWIDTH 537 0
DWIDTH 8 0
BBX 6 10 0 -3
BITMAP
04
04
00
08
10
60
80
84
84
78
ENDCHAR

STARTCHAR Agrave
ENCODING 192
SWIDTH 687 0
DWIDTH 11 0
BBX 11 10 -1 0
BITMAP
1C00
0300
0000
0200
0500
0900
1F80
2080
4040
E0E0
ENDCHAR

STARTCHAR Aacute
ENCODING 193
SWIDTH 687 0
DWIDTH 11 0
BBX 11 10 -1 0
BITMAP
0380
0C00
0000
0200
0500
0900
1F80
2080
4040
E0E0
ENDCHAR

STARTCHAR Acircumflex
ENCODING 194
SWIDTH 687 0
DWIDTH 11 0
BBX 11 11 -1 0
BITMAP
0100
0280
0480
0000
0200
0500
0900
1F80
2080
4040
E0E0
ENDCHAR

STARTCHAR Atilde
ENCODING 195
SWIDTH 687 0
DWIDTH 11 0
BBX 11 10 -1 0
BITMAP
0640
0980
0000
0200
0500
0900
1F80
2080
4040
E0E0
ENDCHAR

STARTCHAR Adieresis
ENCODING 196
SWIDTH 687 0
DWIDTH 11 0
BBX 11 10 -1 0
BITMAP
0480
0480
0000
0200
0500
0900
1F80
2080
4040
E0E0
ENDCHAR

STARTCHAR Aring
ENCODING 197
SWIDTH 687 0
DWIDTH 11 0
BBX 11 11 -1 0
BITMAP
0200
0500
0200
0000
0200
0500
0900
1F80
2080
4040
E0E0
ENDCHAR

STARTCHAR AE
ENCODING 198
SWIDTH 1216 0
DWIDTH 16 0
BBX 18 10 -2 0
BITMAP
003FC0
005040
009040
012200
03FE00
042200
082000
104080
204100
F0FF00
ENDCHAR

STARTCHAR Ccedilla
ENCODING 199
SWIDTH 714 0
DWIDTH 10 0
BBX 10 13 0 -3
BITMAP
0F40
3180
6080
4000
C000
8000
8080
C180
6300
3C00
0400
1400
1800
ENDCHAR

STARTCHAR Egrave
ENCODING 200
SWIDTH 685 0
DWIDTH 9 0
BBX 10 10 -1 0
BITMAP
1C00
0300
0000
3FC0
1040
2400
3C00
4400
4100
FF00
ENDCHAR

STARTCHAR Eacute
ENCODING 201
SWIDTH 685 0
DWIDTH 9 0
BBX 10 10 -1 0
BITMAP
0380
0C00
0000
3FC0
1040
2400
3C00
4400
4100
FF00
ENDCHAR

STARTCHAR Ecircumflex
ENCODING 202
SWIDTH 685 0
DWIDTH 9 0
BBX 10 11 -1 0
BITMAP
0200
0500
0900
0000
3FC0
1040
2400
3C00
4400
4100
FF00
ENDCHAR

STARTCHAR Edieresis
ENCODING 203
SWIDTH 685 0
DWIDTH 9 0
BBX 10 10 -1 0
BITMAP
0480
0480
0000
3FC0
1040
2400
3C00
4400
4100
FF00
ENDCHAR

STARTCHAR Igrave
ENCODING 204
SWIDTH 312 0
DWIDTH 5 0
BBX 5 10 0 0
BITMAP
E0
18
00
70
20
20
40
40
40
E0
ENDCHAR

STARTCHAR Iacute
ENCODING 205
SWIDTH 312 0
DWIDTH 5 0
BBX 6 10 0 0
BITMAP
1C
60
00
70
20
20
40
40
40
E0
ENDCHAR

STARTCHAR Icircumflex
ENCODING 206
SWIDTH 312 0
DWIDTH 5 0
BBX 5 11 0 0
BITMAP
10
28
48
00
70
20
20
40
40
40
E0
ENDCHAR

STARTCHAR Idieresis
ENCODING 207
SWIDTH 312 0
DWIDTH 5 0
BBX 5 10 0 0
BITMAP
28
28
00
70
20
20
40
40
40
E0
ENDCHAR

STARTCHAR Eth
ENCODING 208
SWIDTH 744 0
DWIDTH 10 0
BBX 10 10 -1 0
BITMAP
3F00
1180
10C0
1040
7C40
2040
2080
4180
4300
FC00
ENDCHAR

STARTCHAR Ntilde
ENCODING 209
SWIDTH 709 0
DWIDTH 11 0
BBX 12 10 -1 0
BITMAP
0640
0980
0000
3070
1820
2C20
2640
4340
4180
E080
ENDCHAR

STARTCHAR Ograve
ENCODING 210
SWIDTH 759 0
DWIDTH 11 0
BBX 10 10 0 0
BITMAP
1C00
0300
0000
0F00
3180
40C0
C0C0
C080
6300
3C00
ENDCHAR

STARTCHAR Oacute
ENCODING 211
SWIDTH 759 0
DWIDTH 11 0
BBX 10 10 0 0
BITMAP
0700
1800
0000
0F00
3180
40C0
C0C0
C080
6300
3C00
ENDCHAR

STARTCHAR Ocircumflex
ENCODING 212
SWIDTH 759 0
DWIDTH 11 0
BBX 10 11 0 0
BITMAP
0200
0500
0900
0000
0F00
3180
40C0
C0C0
C080
6300
3C00
ENDCHAR

STARTCHAR Otilde
ENCODING 213
SWIDTH 759 0
DWIDTH 11 0
BBX 10 10 0 0
BITMAP
0C80
1300
0000
0F00
3180
40C0
C0C0
C080
6300
3C00
ENDCHAR

STARTCHAR Odieresis
ENCODING 214
SWIDTH 759 0
DWIDTH 11 0
BBX 10 10 0 0
BITMAP
0900
0900
0000
0F00
3180
40C0
C0C0
C080
6300
3C00
ENDCHAR

STARTCHAR multiply
ENCODING 215
SWIDTH 613 0
DWIDTH 9 0
BBX 7 7 1 0
BITMAP
82
44
28
10
28
44
82
ENDCHAR

STARTCHAR Oslash
ENCODING 216
SWIDTH 758 0
DWIDTH 11 0
BBX 10 10 0 0
BITMAP
0F40
3080
6140
4240
8440
8840
9080
A180
4300
BC00
ENDCHAR

STARTCHAR Ugrave
ENCODING 217
SWIDTH 729 0
DWIDTH 11 0
BBX 9 10 1 0
BITMAP
3800
0600
0000
E380
4100
4100
8200
8200
C600
7C00
ENDCHAR

STARTCHAR Uacute
ENCODING 218
SWIDTH 729 0
DWIDTH 11 0
BBX 9 10 1 0
BITMAP
0700
1800
0000
E380
4100
4100
8200
8200
C600
7C00
ENDCHAR

STARTCHAR Ucircumflex
ENCODING 219
SWIDTH 729 0
DWIDTH 11 0
BBX 9 11 1 0
BITMAP
0400
0A00
1200
0000
E380
4100
4100
8200
8200
C600
7C00
ENDCHAR

STARTCHAR Udieresis
ENCODING 220
SWIDTH 729 0
DWIDTH 11 0
BBX 9 10 1 0
BITMAP
1200
1200
0000
E380
4100
4100
8200
8200
C600
7C00
ENDCHAR

STARTCHAR Yacute
ENCODING 221
SWIDTH 658 0
DWIDTH 9 0
BBX 10 10 0 0
BITMAP
0380
0C00
0000
F1C0
4100
2200
1400
1800
1000
3800
ENDCHAR

STARTCHAR Thorn
ENCODING 222
SWIDTH 588 0
DWIDTH 9 0
BBX 9 10 -1 0
BITMAP
3800
1000
1F00
1180
2080
2180
2300
7C00
4000
E000
ENDCHAR

STARTCHAR germandbls
ENCODING 223
SWIDTH 623 0
DWIDTH 9 0
BBX 10 11 -2 -1
BITMAP
0380
0440
0840
1880
0B00
0880
1040
1040
1480
2300
C000
ENDCHAR

STARTCHAR agrave
ENCODING 224
SWIDTH 615 0
DWIDTH 9 0
BBX 8 10 0 0
BITMAP
70
0C
00
39
46
82
82
84
8C
73
ENDCHAR

STARTCHAR aacute
ENCODING 225
SWIDTH 615 0
DWIDTH 9 0
BBX 8 10 0 0
BITMAP
1C
60
00
39
46
82
82
84
8C
73
ENDCHAR

STARTCHAR acircumflex
ENCODING 226
SWIDTH 615 0
DWIDTH 9 0
BBX 8 11 0 0
BITMAP
08
14
24
00
39
46
82
82
84
8C
73
ENDCHAR

STARTCHAR atilde
ENCODING 227
SWIDTH 615 0
DWIDTH 9 0
BBX 8 10 0 0
BITMAP
32
4C
00
39
46
82
82
84
8C
73
ENDCHAR

STARTCHAR adieresis
ENCODING 228
SWIDTH 615 0
DWIDTH 9 0
BBX 8 10 0 0
BITMAP
24
24
00
39
46
82
82
84
8C
73
ENDCHAR

STARTCHAR aring
ENCODING 229
SWIDTH 615 0
DWIDTH 9 0
BBX 8 11 0 0
BITMAP
10
28
10
00
39
46
82
82
84
8C
73
ENDCHAR

STARTCHAR ae
ENCODING 230
SWIDTH 859 0
DWIDTH 13 0
BBX 12 7 0 0
BITMAP
38E0
4510
0610
7FE0
8400
8A20
71C0
ENDCHAR

STARTCHAR ccedilla
ENCODING 231
SWIDTH 484 0
DWIDTH 7 0
BBX 6 10 0 -3
BITMAP
38
44
84
80
80
88
70
20
A0
C0
ENDCHAR

STARTCHAR egrave
ENCODING 232
SWIDTH 527 0
DWIDTH 8 0
BBX 7 10 0 0
BITMAP
70
0C
00
3C
42
82
FC
80
84
78
ENDCHAR

STARTCHAR eacute
ENCODING 233
SWIDTH 527 0
DWIDTH 8 0
BBX 7 10 0 0
BITMAP
1C
60
00
3C
42
82
FC
80
84
78
ENDCHAR

STARTCHAR ecircumflex
ENCODING 234
SWIDTH 527 0
DWIDTH 8 0
BBX 7 11 0 0
BITMAP
08
14
24
00
3C
42
82
FC
80
84
78
ENDCHAR

STARTCHAR edieresis
ENCODING 235
SWIDTH 527 0
DWIDTH 8 0
BBX 7 10 0 0
BITMAP
24
24
00
3C
42
82
FC
80
84
78
ENDCHAR

STARTCHAR igrave
ENCODING 236
SWIDTH 285 0
DWIDTH 4 0
BBX 5 10 -1 0
BITMAP
E0
18
00
60
20
20
40
40
50
20
ENDCHAR

STARTCHAR iacute
ENCODING 237
SWIDTH 285 0
DWIDTH 4 0
BBX 5 10 -1 0
BITMAP
38
C0
00
60
20
20
40
40
50
20
ENDCHAR

STARTCHAR icircumflex
ENCODING 238
SWIDTH 285 0
DWIDTH 4 0
BBX 4 11 0 0
BITMAP
20
50
90
00
C0
40
40
80
80
A0
40
ENDCHAR

STARTCHAR idieresis
ENCODING 239
SWIDTH 285 0
DWIDTH 4 0
BBX 4 10 0 0
BITMAP
90
90
00
C0
40
40
80
80
A0
40
ENDCHAR

STARTCHAR eth
ENCODING 240
SWIDTH 547 0
DWIDTH 7 0
BBX 6 10 0 0
BITMAP
6C
30
C8
38
44
84
84
84
88
70
ENDCHAR

STARTCHAR ntilde
ENCODING 241
SWIDTH 607 0
DWIDTH 9 0
BBX 8 10 0 0
BITMAP
32
4C
00
CC
72
42
42
84
85
82
ENDCHAR

STARTCHAR ograve
ENCODING 242
SWIDTH 547 0
DWIDTH 7 0
BBX 6 10 0 0
BITMAP
60
18
00
38
44
84
84
84
88
70
ENDCHAR

STARTCHAR oacute
ENCODING 243
SWIDTH 547 0
DWIDTH 7 0
BBX 6 10 0 0
BITMAP
18
60
00
38
44
84
84
84
88
70
ENDCHAR

STARTCHAR ocircumflex
ENCODING 244
SWIDTH 547 0
DWIDTH 7 0
BBX 6 11 0 0
BITMAP
10
28
48
00
38
44
84
84
84
88
70
ENDCHAR

STARTCHAR otilde
ENCODING 245
SWIDTH 547 0
DWIDTH 7 0
BBX 6 10 0 0
BITMAP
64
98
00
38
44
84
84
84
88
70
ENDCHAR

STARTCHAR odieresis
ENCODING 246
SWIDTH 547 0
DWIDTH 7 0
BBX 6 10 0 0
BITMAP
48
48
00
38
44
84
84
84
88
70
ENDCHAR

STARTCHAR divide
ENCODING 247
SWIDTH 613 0
DWIDTH 9 0
BBX 7 7 1 0
BITMAP
10
10
00
FE
00
10
10
ENDCHAR

STARTCHAR oslash
ENCODING 248
SWIDTH 546 0
DWIDTH 7 0
BBX 8 8 -1 -1
BITMAP
1D
22
46
4A
52
64
78
80
ENDCHAR

STARTCHAR ugrave
ENCODING 249
SWIDTH 619 0
DWIDTH 9 0
BBX 8 10 0 0
BITMAP
70
0C
00
E2
42
42
84
84
8D
76
ENDCHAR

STARTCHAR uacute
ENCODING 250
SWIDTH 619 0
DWIDTH 9 0
BBX 8 10 0 0
BITMAP
0E
30
00
E2
42
42
84
84
8D
76
ENDCHAR

STARTCHAR ucircumflex
ENCODING 251
SWIDTH 619 0
DWIDTH 9 0
BBX 8 11 0 0
BITMAP
08
14
24
00
E2
42
42
84
84
8D
76
ENDCHAR

STARTCHAR udieresis
ENCODING 252
SWIDTH 619 0
DWIDTH 9 0
BBX 8 10 0 0
BITMAP
24
24
00
E2
42
42
84
84
8D
76
ENDCHAR

STARTCHAR yacute
ENCODING 253
SWIDTH 597 0
DWIDTH 8 0
BBX 9 14 -1 -4
BITMAP
0700
1800
0000
7180
2100
2100
4200
4200
4600
3A00
0400
8400
8800
7000
ENDCHAR

STARTCHAR thorn
ENCODING 254
SWIDTH 593 0
DWIDTH 8 0
BBX 9 13 -2 -3
BITMAP
0C00
0400
0800
0F00
0880
1080
1080
1080
3100
2E00
2000
4000
F000
ENDCHAR

STARTCHAR ydieresis
ENCODING 255
SWIDTH 597 0
DWIDTH 8 0
BBX 9 14 -1 -4
BITMAP
1200
1200
0000
7180
2100
2100
4200
4200
4600
3A00
0400
8400
8800
7000
ENDCHAR
ENDFONT
